<svg width="196" height="196" viewBox="0 0 196 196" fill="none" xmlns="http://www.w3.org/2000/svg">
<path d="M145.412 97.6042C145.412 108.816 143.415 118.574 139.421 126.878C135.427 135.147 129.926 141.559 122.918 146.114C115.946 150.634 107.922 152.893 98.8475 152.893C89.7728 152.893 81.7317 150.634 74.7242 146.114C67.7517 141.559 62.2683 135.147 58.274 126.878C54.3148 118.574 52.3351 108.816 52.3351 97.6042C52.3351 86.3921 54.3148 76.6517 58.274 68.3828C62.2683 60.0789 67.7692 53.6671 74.7767 49.1472C81.7842 44.5923 89.8078 42.3149 98.8475 42.3149C107.922 42.3149 115.946 44.5923 122.918 49.1472C129.926 53.6671 135.427 60.0789 139.421 68.3828C143.415 76.6517 145.412 86.3921 145.412 97.6042ZM135.847 97.6042C135.847 87.9688 134.235 79.7175 131.012 72.8501C127.789 65.9477 123.391 60.6746 117.82 57.0307C112.249 53.3868 105.925 51.5648 98.8475 51.5648C91.805 51.5648 85.4982 53.3868 79.9272 57.0307C74.3563 60.6746 69.9415 65.9302 66.683 72.7976C63.4596 79.6649 61.8478 87.9338 61.8478 97.6042C61.8478 107.239 63.4596 115.491 66.683 122.358C69.9065 129.226 74.3037 134.499 79.8747 138.178C85.4456 141.822 91.7699 143.644 98.8475 143.644C105.925 143.644 112.249 141.822 117.82 138.178C123.426 134.534 127.841 129.278 131.065 122.411C134.288 115.508 135.882 107.239 135.847 97.6042Z" fill="#323232"/>
</svg>
